<svg width="2479" height="518" viewBox="0 0 2479 518" fill="none" xmlns="http://www.w3.org/2000/svg">
<path d="M1901.29 128.764H1959.55V24.9082H2011.99C2081.36 24.9082 2124.57 68.1245 2141.74 128.789H2199.9C2176.21 59.0969 2111.58 7.96582 2017.84 7.96582H1880.68V8.49676C1898.68 35.5037 1901.34 50.8533 1901.34 105.398V128.764H1901.29Z" fill="white"/>
<path d="M2016.75 361.71C1997.68 361.71 1978.09 361.179 1959.55 357.462V245.338H1901.29V281.196C1901.29 335.741 1898.63 351.09 1880.63 378.097V378.628H2017.79C2112.49 378.628 2180.23 321.605 2202.28 245.363H2145.18C2131.71 312.451 2090.29 361.71 2016.72 361.71H2016.75Z" fill="white"/>
<path d="M1704.78 0L1681.49 7.40964L1635.26 128.738H1652.94L1671.96 77.8599L1691.63 128.738H1755.66L1704.78 0Z" fill="white"/>
<path d="M1801.73 245.338H1737.3L1752.45 285.444C1772.58 336.828 1774.14 351.115 1756.67 378.122V378.653H1862.57V378.122C1846.16 352.177 1837.69 336.828 1817.56 285.444L1801.71 245.338H1801.73Z" fill="white"/>
<path d="M1575.59 285.444C1556.52 336.828 1548.58 351.646 1531.64 378.122V378.653H1590.94V378.122C1573.46 351.115 1575.06 336.828 1594.12 285.444L1609.09 245.312H1590.89L1575.61 285.444H1575.59Z" fill="white"/>
<path d="M2409.01 213.324L2408.98 213.425H2409.01V213.324Z" fill="white"/>
<path d="M2241.65 128.789H2298.85V24.9082H2358.18C2403.72 24.9082 2421.19 36.5658 2460.92 66.7336H2461.45L2456.7 7.96582H2221.02V8.49676C2239.02 35.5037 2241.68 50.8533 2241.68 105.398V128.789H2241.65Z" fill="white"/>
<path d="M2472.53 319.885C2433.36 350.053 2415.88 361.711 2370.32 361.711H2325.84C2302.52 361.711 2298.83 346.892 2298.83 315.637V245.389H2241.63V281.221C2241.63 335.766 2238.97 351.115 2220.97 378.122V378.653H2468.28L2473.06 319.885H2472.53V319.885Z" fill="white"/>
<path d="M124.092 24.9082C179.168 24.9082 207.768 59.3245 207.768 105.398C207.768 113.566 206.554 121.228 204.708 128.586H264.538C266.662 121.025 268.129 113.187 268.129 104.867C268.129 48.7292 228.959 7.96582 138.91 7.96582H6V8.49676C24.0046 35.5037 26.6602 50.8533 26.6602 105.398V281.221C26.6602 335.766 24.0046 351.115 6 378.122V378.653H104.494V378.122C86.4895 351.115 83.8346 335.766 83.8346 281.221V24.9082H124.092Z" fill="white"/>
<path d="M266.029 319.329L236.367 263.722C232.65 256.843 228.908 250.826 225.14 245.161H160.379C165.563 253.026 170.772 261.749 175.981 272.193L231.588 378.628H310.485V378.096C289.825 361.154 283.478 351.62 266.004 319.303L266.029 319.329Z" fill="white"/>
<path d="M969.632 128.662H1026.83V24.9082H1086.16C1131.7 24.9082 1149.17 36.5658 1188.9 66.7336H1189.43L1184.68 7.96582H948.997V8.49676C967.002 35.5037 969.657 50.8533 969.657 105.398V128.662H969.632Z" fill="white"/>
<path d="M1098.32 361.71H1053.84C1030.52 361.71 1026.83 346.892 1026.83 315.637V245.262H969.63V281.221C969.63 335.766 966.975 351.115 948.97 378.122V378.653H1196.28L1201.06 319.885H1200.53C1161.36 350.053 1143.88 361.71 1098.32 361.71V361.71Z" fill="white"/>
<path d="M350.869 128.612H408.068V24.9082H467.392C512.935 24.9082 530.409 36.5658 570.135 66.7336H570.666L565.912 7.96582H330.234V8.49676C348.238 35.5037 350.894 50.8533 350.894 105.398V128.612H350.869Z" fill="white"/>
<path d="M479.556 361.71H435.076C411.761 361.71 408.069 346.892 408.069 315.637V245.187H350.869V281.221C350.869 335.766 348.214 351.115 330.209 378.122V378.653H577.52L582.274 319.885H581.743C542.573 350.053 525.099 361.71 479.531 361.71H479.556Z" fill="white"/>
<path d="M860.996 8.49676C878.469 35.5037 881.655 50.8533 881.655 105.398V128.662H900.722V105.398C900.722 50.8533 903.377 35.5037 920.851 8.49676V7.96582H861.021V8.49676H860.996Z" fill="white"/>
<path d="M602.029 7.96582V8.49676C620.033 35.5037 622.688 50.8533 622.688 105.398V128.637H641.755V77.8598L682.164 128.637H758.76L661.884 7.96582H602.029V7.96582Z" fill="white"/>
<path d="M641.755 245.237H622.688V281.221C622.688 335.766 620.033 351.115 602.029 378.122V378.653H661.884V378.122C644.41 351.115 641.755 335.766 641.755 281.221V245.237Z" fill="white"/>
<path d="M881.657 281.752L852.349 245.237H774.944L881.101 378.653H900.698V245.262L881.657 245.237V281.752Z" fill="white"/>
<path d="M1398.4 19.0671C1445 19.0671 1479.95 40.2583 1510.67 82.0836H1512.27L1506.98 18.0052C1475.73 7.96614 1446.09 1.59375 1397.87 1.59375C1305.24 1.59375 1239.39 55.1271 1214.56 128.663H1275.93C1292.44 64.0029 1334.85 19.0418 1398.42 19.0418L1398.4 19.0671Z" fill="white"/>
<path d="M1470.11 245.439L1451.86 245.312V245.844C1469.33 272.851 1472.52 287.669 1472.52 342.745V352.683C1454.51 362.747 1433.35 367.526 1405.28 367.526C1336.9 367.526 1288.73 317.988 1273.38 245.262H1209.22C1227.91 325.676 1293.28 385 1397.34 385C1463.01 385 1501.65 366.464 1526.55 352.151V245.287H1470.11C1470.11 245.287 1470.11 245.388 1470.11 245.414V245.439Z" fill="white"/>
<path d="M5.77771 503V433.468H51.6689C56.3043 433.468 60.41 434.329 63.986 436.051C67.5619 437.706 70.3101 440.024 72.2305 443.004C74.2171 445.917 75.2104 449.229 75.2104 452.937C75.2104 456.976 74.1178 460.519 71.9325 463.565C69.7472 466.545 67.0984 468.631 63.986 469.823C66.701 470.022 68.9526 471.048 70.7405 472.903C72.5947 474.691 73.5218 477.339 73.5218 480.849V503H65.8733V482.24C65.8733 479.194 65.178 477.108 63.7873 475.982C62.4629 474.856 60.0789 474.293 56.6354 474.293H13.4262V503H5.77771ZM50.5762 467.439C55.8077 467.439 59.9134 466.214 62.8933 463.764C65.8733 461.248 67.3633 457.937 67.3633 453.831C67.3633 449.46 65.9064 446.116 62.9927 443.798C60.0789 441.481 55.9401 440.322 50.5762 440.322H13.4262V467.439H50.5762ZM204.958 470.519V496.146H266.94V503H197.309V433.468H265.947V440.322H204.958V463.665H259.987V470.519H204.958ZM451.591 503H385.833V433.468H393.482V496.146H451.591V503ZM643.286 503H634.545L623.916 484.028H574.25L563.523 503H555.079L594.812 433.468H603.752L643.286 503ZM599.083 439.924L578.124 477.174H620.042L599.083 439.924ZM775.214 465.751L804.417 433.468H814.648L778.889 472.605V503H771.24V472.605L735.481 433.468H745.911L775.214 465.751ZM936.453 470.519V496.146H998.436V503H928.804V433.468H997.442V440.322H936.453V463.665H991.482V470.519H936.453ZM1117.33 503V433.468H1163.22C1167.86 433.468 1171.96 434.329 1175.54 436.051C1179.11 437.706 1181.86 440.024 1183.78 443.004C1185.77 445.917 1186.76 449.229 1186.76 452.937C1186.76 456.976 1185.67 460.519 1183.48 463.565C1181.3 466.545 1178.65 468.631 1175.54 469.823C1178.25 470.022 1180.5 471.048 1182.29 472.903C1184.15 474.691 1185.07 477.339 1185.07 480.849V503H1177.42V482.24C1177.42 479.194 1176.73 477.108 1175.34 475.982C1174.01 474.856 1171.63 474.293 1168.19 474.293H1124.98V503H1117.33ZM1162.13 467.439C1167.36 467.439 1171.46 466.214 1174.44 463.764C1177.42 461.248 1178.91 457.937 1178.91 453.831C1178.91 449.46 1177.46 446.116 1174.54 443.798C1171.63 441.481 1167.49 440.322 1162.13 440.322H1124.98V467.439H1162.13ZM1472.1 503.993C1447.86 503.993 1435.55 496.345 1435.15 481.048H1443.1C1443.49 485.749 1445.85 489.623 1450.15 492.67C1454.45 495.649 1461.41 497.139 1471.01 497.139H1473C1482.13 497.139 1488.66 495.881 1492.56 493.365C1496.54 490.782 1498.52 487.703 1498.52 484.127C1498.52 481.015 1497.3 478.531 1494.85 476.677C1492.4 474.823 1488.03 473.532 1481.74 472.803L1464.75 470.717C1458.39 469.923 1453.39 468.83 1449.75 467.439C1446.11 466.049 1443.46 464.161 1441.81 461.777C1440.22 459.393 1439.42 456.281 1439.42 452.44C1439.42 448.798 1440.58 445.487 1442.9 442.507C1445.22 439.461 1448.79 437.044 1453.63 435.256C1458.53 433.402 1464.69 432.475 1472.1 432.475C1483.36 432.475 1492.07 434.428 1498.23 438.335C1504.38 442.176 1507.76 447.341 1508.36 453.831H1500.31C1499.58 449.593 1496.87 446.116 1492.17 443.401C1487.53 440.686 1481.14 439.328 1473 439.328H1471.01C1463.2 439.328 1457.27 440.554 1453.23 443.004C1449.26 445.388 1447.27 448.401 1447.27 452.043C1447.27 454.162 1447.77 455.917 1448.76 457.307C1449.75 458.698 1451.54 459.89 1454.12 460.883C1456.71 461.811 1460.41 462.572 1465.25 463.168L1481.74 465.155C1490.08 466.148 1496.27 468.135 1500.31 471.115C1504.35 474.095 1506.37 478.233 1506.37 483.531C1506.37 490.087 1503.49 495.153 1497.73 498.729C1491.97 502.238 1483.43 503.993 1472.1 503.993ZM1666.36 503.993C1658.02 503.993 1650.44 502.603 1643.62 499.821C1636.86 496.974 1631.5 492.868 1627.53 487.504C1623.62 482.14 1621.67 475.717 1621.67 468.234C1621.67 460.751 1623.62 454.328 1627.53 448.964C1631.5 443.6 1636.86 439.527 1643.62 436.746C1650.44 433.898 1658.02 432.475 1666.36 432.475C1674.64 432.475 1682.16 433.898 1688.91 436.746C1695.73 439.527 1701.1 443.633 1705 449.063C1708.98 454.427 1710.96 460.817 1710.96 468.234C1710.96 475.651 1708.98 482.074 1705 487.504C1701.1 492.868 1695.73 496.974 1688.91 499.821C1682.16 502.603 1674.64 503.993 1666.36 503.993ZM1667.36 497.139C1673.98 497.139 1679.97 496.047 1685.34 493.861C1690.77 491.61 1695.07 488.299 1698.25 483.928C1701.5 479.558 1703.12 474.326 1703.12 468.234C1703.12 462.142 1701.5 456.91 1698.25 452.54C1695.07 448.169 1690.77 444.891 1685.34 442.706C1679.97 440.454 1673.98 439.328 1667.36 439.328H1665.37C1658.75 439.328 1652.72 440.454 1647.29 442.706C1641.86 444.891 1637.53 448.169 1634.28 452.54C1631.1 456.91 1629.51 462.142 1629.51 468.234C1629.51 474.326 1631.1 479.558 1634.28 483.928C1637.53 488.299 1641.86 491.61 1647.29 493.861C1652.72 496.047 1658.75 497.139 1665.37 497.139H1667.36ZM1864.07 503.993C1852.55 503.993 1843.84 501.212 1837.95 495.649C1832.06 490.087 1829.11 482.405 1829.11 472.605V433.468H1836.76V471.611C1836.76 480.021 1839.07 486.379 1843.71 490.683C1848.35 494.987 1854.8 497.139 1863.08 497.139H1865.07C1873.28 497.139 1879.7 494.987 1884.34 490.683C1889.04 486.379 1891.39 480.021 1891.39 471.611V433.468H1899.04V472.605C1899.04 482.405 1896.09 490.087 1890.2 495.649C1884.3 501.212 1875.6 503.993 1864.07 503.993ZM2022.41 503V433.468H2068.3C2072.94 433.468 2077.04 434.329 2080.62 436.051C2084.19 437.706 2086.94 440.024 2088.86 443.004C2090.85 445.917 2091.84 449.229 2091.84 452.937C2091.84 456.976 2090.75 460.519 2088.56 463.565C2086.38 466.545 2083.73 468.631 2080.62 469.823C2083.33 470.022 2085.58 471.048 2087.37 472.903C2089.23 474.691 2090.15 477.339 2090.15 480.849V503H2082.5V482.24C2082.5 479.194 2081.81 477.108 2080.42 475.982C2079.09 474.856 2076.71 474.293 2073.27 474.293H2030.06V503H2022.41ZM2067.21 467.439C2072.44 467.439 2076.54 466.214 2079.52 463.764C2082.5 461.248 2083.99 457.937 2083.99 453.831C2083.99 449.46 2082.54 446.116 2079.62 443.798C2076.71 441.481 2072.57 440.322 2067.21 440.322H2030.06V467.439H2067.21ZM2252.28 503.993C2243.28 503.993 2235.46 502.47 2228.84 499.424C2222.28 496.378 2217.29 492.173 2213.84 486.809C2210.4 481.379 2208.68 475.187 2208.68 468.234C2208.68 461.281 2210.4 455.122 2213.84 449.758C2217.29 444.328 2222.28 440.09 2228.84 437.044C2235.46 433.998 2243.28 432.475 2252.28 432.475C2260.63 432.475 2267.55 433.7 2273.04 436.15C2278.54 438.534 2282.61 441.448 2285.26 444.891C2287.98 448.268 2289.66 451.579 2290.33 454.824H2281.39C2280.79 452.374 2279.37 449.99 2277.12 447.672C2274.93 445.288 2271.82 443.302 2267.78 441.712C2263.81 440.123 2258.97 439.328 2253.28 439.328H2251.29C2244.34 439.328 2238.21 440.587 2232.91 443.103C2227.68 445.553 2223.64 448.997 2220.79 453.434C2217.95 457.804 2216.52 462.738 2216.52 468.234C2216.52 473.73 2217.95 478.697 2220.79 483.134C2223.64 487.504 2227.68 490.948 2232.91 493.464C2238.21 495.914 2244.34 497.139 2251.29 497.139H2253.28C2258.9 497.139 2263.71 496.345 2267.68 494.755C2271.65 493.166 2274.73 491.213 2276.92 488.895C2279.17 486.511 2280.66 484.094 2281.39 481.644H2290.33C2289.66 484.889 2287.98 488.233 2285.26 491.676C2282.61 495.053 2278.54 497.967 2273.04 500.417C2267.55 502.801 2260.63 503.993 2252.28 503.993ZM2416.71 470.519V496.146H2478.69V503H2409.06V433.468H2477.7V440.322H2416.71V463.665H2471.74V470.519H2416.71Z" fill="white"/>
</svg>
